<svg width="28" height="28" viewBox="0 0 28 28" fill="none" xmlns="http://www.w3.org/2000/svg">
<g clip-path="url(#clip0_9471_12138)">
<path d="M13.0671 21.2337C17.5774 21.2337 21.2337 17.5774 21.2337 13.0671C21.2337 8.55673 17.5774 4.90039 13.0671 4.90039C8.55673 4.90039 4.90039 8.55673 4.90039 13.0671C4.90039 17.5774 8.55673 21.2337 13.0671 21.2337Z" stroke="white" stroke-width="2" stroke-linecap="round" stroke-linejoin="round"/>
<path d="M23.7996 23.7996L19.5996 19.5996" stroke="white" stroke-width="2" stroke-linecap="round" stroke-linejoin="round"/>
<path d="M15.3988 13.3274C15.6801 13.6087 16.0616 13.7667 16.4594 13.7667C16.8573 13.7667 17.2388 13.6087 17.5201 13.3274L22.6243 8.22323C22.6384 8.2091 22.6523 8.19468 22.6658 8.17999C23.5158 7.25916 23.9652 6.03839 23.9151 4.78622C23.865 3.53406 23.3196 2.35307 22.3987 1.50308L21.3813 2.60528L22.3987 1.50307C21.4779 0.653078 20.2571 0.203692 19.005 0.253778C18.0834 0.290642 17.2003 0.595845 16.4594 1.12155C15.7185 0.595846 14.8355 0.290642 13.9139 0.253778C12.6618 0.203692 11.441 0.653077 10.5201 1.50308C9.59932 2.35307 9.05386 3.53406 9.00378 4.78622C8.97898 5.40623 9.07654 6.02505 9.29089 6.60736C9.50525 7.18966 9.8322 7.72404 10.2531 8.17999C10.2666 8.19468 10.2805 8.2091 10.2946 8.22323L15.3988 13.3274Z" stroke="#EA5930" stroke-width="3" stroke-linecap="round" stroke-linejoin="round"/>
<path d="M16.4594 12.2667L11.3553 7.16257C11.068 6.85137 10.8449 6.48663 10.6985 6.08918C10.5522 5.69173 10.4856 5.26936 10.5026 4.84617C10.5368 3.99151 10.9091 3.18544 11.5376 2.60528C12.1661 2.02512 12.9993 1.71839 13.854 1.75258C14.7086 1.78677 15.5147 2.15906 16.0949 2.78757C16.2028 2.85968 16.3297 2.89816 16.4594 2.89816C16.5892 2.89816 16.7161 2.85968 16.824 2.78757C17.4042 2.15906 18.2103 1.78677 19.0649 1.75258C19.9196 1.71839 20.7528 2.02512 21.3813 2.60528C22.0098 3.18544 22.3821 3.99151 22.4163 4.84617C22.4505 5.70083 22.1438 6.53406 21.5636 7.16257L16.4594 12.2667Z" fill="#EA5930" stroke="white" stroke-width="2" stroke-linecap="round" stroke-linejoin="round"/>
</g>
<defs>
<clipPath id="clip0_9471_12138">
<rect width="28" height="28" fill="white"/>
</clipPath>
</defs>
</svg>
