<svg width="76" height="80" viewBox="0 0 76 80" fill="none" xmlns="http://www.w3.org/2000/svg">
<path d="M36.4734 66.6665H5.99859C3.05312 66.6665 0.665466 64.2787 0.665466 61.3334V56H41.5962L36.4734 66.6665Z" fill="#D3DCFB"/>
<path d="M70.0039 23.9999V46.4059V61.3331H5.99859C3.05312 61.3331 0.665466 58.9453 0.665466 55.9998V23.9999L38.0014 10.6665L70.0039 23.9999Z" fill="#EBF5FC"/>
<path d="M10.0837 34.6668H7.25046C6.56015 34.6668 6.00046 34.1071 6.00046 33.4168V30.5835C6.00046 29.8932 6.56015 29.3335 7.25046 29.3335H10.0837C10.7741 29.3335 11.3337 29.8932 11.3337 30.5835V33.4168C11.3337 34.1071 10.7741 34.6668 10.0837 34.6668Z" fill="#3C58A0"/>
<path d="M20.7505 34.6668H17.9172C17.2269 34.6668 16.6672 34.1071 16.6672 33.4168V30.5835C16.6672 29.8932 17.2269 29.3335 17.9172 29.3335H20.7505C21.4408 29.3335 22.0005 29.8932 22.0005 30.5835V33.4168C22.0005 34.1071 21.4408 34.6668 20.7505 34.6668Z" fill="#3C58A0"/>
<path d="M31.417 34.6668H28.5837C27.8934 34.6668 27.3337 34.1071 27.3337 33.4168V30.5835C27.3337 29.8932 27.8934 29.3335 28.5837 29.3335H31.417C32.1073 29.3335 32.667 29.8932 32.667 30.5835V33.4168C32.667 34.1071 32.1075 34.6668 31.417 34.6668Z" fill="#3C58A0"/>
<path d="M42.0837 34.6668H39.2505C38.5601 34.6668 38.0005 34.1071 38.0005 33.4168V30.5835C38.0005 29.8932 38.5601 29.3335 39.2505 29.3335H42.0837C42.7741 29.3335 43.3337 29.8932 43.3337 30.5835V33.4168C43.3337 34.1071 42.7741 34.6668 42.0837 34.6668Z" fill="#3C58A0"/>
<path d="M52.7486 34.6668H49.9153C49.225 34.6668 48.6653 34.1071 48.6653 33.4168V30.5835C48.6653 29.8932 49.225 29.3335 49.9153 29.3335H52.7486C53.4389 29.3335 53.9986 29.8932 53.9986 30.5835V33.4168C53.9986 34.1071 53.439 34.6668 52.7486 34.6668Z" fill="#3C58A0"/>
<path d="M63.4153 34.6668H60.582C59.8917 34.6668 59.332 34.1071 59.332 33.4168V30.5835C59.332 29.8932 59.8917 29.3335 60.582 29.3335H63.4153C64.1056 29.3335 64.6653 29.8932 64.6653 30.5835V33.4168C64.6653 34.1071 64.1056 34.6668 63.4153 34.6668Z" fill="#3C58A0"/>
<path d="M10.0837 45.3333H7.25046C6.56015 45.3333 6.00046 44.7736 6.00046 44.0833V41.25C6.00046 40.5597 6.56015 40 7.25046 40H10.0837C10.7741 40 11.3337 40.5597 11.3337 41.25V44.0833C11.3337 44.7738 10.7741 45.3333 10.0837 45.3333Z" fill="#3C58A0"/>
<path d="M20.7505 45.3333H17.9172C17.2269 45.3333 16.6672 44.7736 16.6672 44.0833V41.25C16.6672 40.5597 17.2269 40 17.9172 40H20.7505C21.4408 40 22.0005 40.5597 22.0005 41.25V44.0833C22.0005 44.7738 21.4408 45.3333 20.7505 45.3333Z" fill="#3C58A0"/>
<path d="M31.417 45.3333H28.5837C27.8934 45.3333 27.3337 44.7736 27.3337 44.0833V41.25C27.3337 40.5597 27.8934 40 28.5837 40H31.417C32.1073 40 32.667 40.5597 32.667 41.25V44.0833C32.667 44.7738 32.1075 45.3333 31.417 45.3333Z" fill="#3C58A0"/>
<path d="M43.3337 45.3333V41.3333C43.3337 40.5969 42.7369 40 42.0005 40H39.3337C38.5973 40 38.0005 40.5969 38.0005 41.3333V44C38.0005 44.7364 38.5975 45.3333 39.3337 45.3333H43.3337Z" fill="#3C58A0"/>
<path d="M10.0837 56.0003H7.25046C6.56015 56.0003 6.00046 55.4406 6.00046 54.7503V51.917C6.00046 51.2267 6.56015 50.667 7.25046 50.667H10.0837C10.7741 50.667 11.3337 51.2267 11.3337 51.917V54.7503C11.3337 55.4406 10.7741 56.0003 10.0837 56.0003Z" fill="#3C58A0"/>
<path d="M20.7505 56.0003H17.9172C17.2269 56.0003 16.6672 55.4406 16.6672 54.7503V51.917C16.6672 51.2267 17.2269 50.667 17.9172 50.667H20.7505C21.4408 50.667 22.0005 51.2267 22.0005 51.917V54.7503C22.0005 55.4406 21.4408 56.0003 20.7505 56.0003Z" fill="#3C58A0"/>
<path d="M31.417 56.0003H28.5837C27.8934 56.0003 27.3337 55.4406 27.3337 54.7503V51.917C27.3337 51.2267 27.8934 50.667 28.5837 50.667H31.417C32.1073 50.667 32.667 51.2267 32.667 51.917V54.7503C32.667 55.4406 32.1075 56.0003 31.417 56.0003Z" fill="#3C58A0"/>
<path d="M63.3776 29.3335H60.6198C60.453 29.3335 60.2941 29.3663 60.1476 29.424C60.625 29.6124 60.9631 30.0768 60.9631 30.6212V33.379C60.9631 33.9233 60.6248 34.3877 60.1476 34.5762C60.2941 34.634 60.453 34.6668 60.6198 34.6668H63.3776C64.0889 34.6668 64.6655 34.0902 64.6655 33.3791V30.6213C64.6653 29.9101 64.0887 29.3335 63.3776 29.3335Z" fill="#2A428C"/>
<path d="M52.7109 29.3335H49.9531C49.7862 29.3335 49.6273 29.3663 49.4809 29.424C49.9583 29.6124 50.2964 30.0768 50.2964 30.6212V33.379C50.2964 33.9233 49.9581 34.3877 49.4809 34.5762C49.6273 34.634 49.7862 34.6668 49.9531 34.6668H52.7109C53.4222 34.6668 53.9986 34.0902 53.9986 33.3791V30.6213C53.9986 29.9101 53.4222 29.3335 52.7109 29.3335Z" fill="#2A428C"/>
<path d="M42.0461 29.3335H39.2883C39.1214 29.3335 38.9625 29.3663 38.8161 29.424C39.2934 29.6124 39.6317 30.0768 39.6317 30.6212V33.379C39.6317 33.9233 39.2934 34.3877 38.8161 34.5762C38.9625 34.634 39.1214 34.6668 39.2883 34.6668H42.0461C42.7574 34.6668 43.3339 34.0902 43.3339 33.3791V30.6213C43.3338 29.9101 42.7572 29.3335 42.0461 29.3335Z" fill="#2A428C"/>
<path d="M31.3794 29.3335H28.6215C28.4547 29.3335 28.2958 29.3663 28.1494 29.424C28.6267 29.6124 28.965 30.0768 28.965 30.6212V33.379C28.965 33.9233 28.6267 34.3877 28.1494 34.5762C28.2958 34.634 28.4547 34.6668 28.6215 34.6668H31.3794C32.0906 34.6668 32.6672 34.0902 32.6672 33.3791V30.6213C32.667 29.9101 32.0906 29.3335 31.3794 29.3335Z" fill="#2A428C"/>
<path d="M20.7127 29.3335H17.9549C17.788 29.3335 17.6291 29.3663 17.4827 29.424C17.96 29.6124 18.2981 30.0768 18.2981 30.6212V33.379C18.2981 33.9233 17.9599 34.3877 17.4827 34.5762C17.6291 34.634 17.788 34.6668 17.9549 34.6668H20.7127C21.4239 34.6668 22.0005 34.0902 22.0005 33.3791V30.6213C22.0005 29.9101 21.4239 29.3335 20.7127 29.3335Z" fill="#2A428C"/>
<path d="M10.0461 29.3335H7.28829C7.12141 29.3335 6.96251 29.3663 6.8161 29.424C7.29344 29.6124 7.63173 30.0768 7.63173 30.6212V33.379C7.63173 33.9233 7.29344 34.3877 6.8161 34.5762C6.96251 34.634 7.12141 34.6668 7.28829 34.6668H10.0461C10.7573 34.6668 11.3339 34.0902 11.3339 33.3791V30.6213C11.3338 29.9101 10.7572 29.3335 10.0461 29.3335Z" fill="#2A428C"/>
<path d="M10.0461 40H7.28829C7.12141 40 6.96251 40.0328 6.8161 40.0905C7.29344 40.2789 7.63173 40.7433 7.63173 41.2877V44.0456C7.63173 44.59 7.29344 45.0544 6.8161 45.2428C6.96251 45.3006 7.12141 45.3334 7.28829 45.3334H10.0461C10.7573 45.3334 11.3339 44.7569 11.3339 44.0458V41.2878C11.3338 40.5766 10.7572 40 10.0461 40Z" fill="#2A428C"/>
<path d="M10.0461 50.6665H7.28829C7.12141 50.6665 6.96251 50.6993 6.8161 50.757C7.29344 50.9454 7.63173 51.4098 7.63173 51.9542V54.7121C7.63173 55.2565 7.29344 55.7209 6.8161 55.9093C6.96251 55.9671 7.12141 55.9999 7.28829 55.9999H10.0461C10.7573 55.9999 11.3339 55.4234 11.3339 54.7123V51.9543C11.3338 51.2429 10.7572 50.6665 10.0461 50.6665Z" fill="#2A428C"/>
<path d="M20.7127 40H17.9549C17.788 40 17.6291 40.0328 17.4827 40.0905C17.96 40.2789 18.2981 40.7433 18.2981 41.2877V44.0456C18.2981 44.59 17.9599 45.0544 17.4827 45.2428C17.6291 45.3006 17.788 45.3334 17.9549 45.3334H20.7127C21.4239 45.3334 22.0005 44.7569 22.0005 44.0458V41.2878C22.0005 40.5766 21.4239 40 20.7127 40Z" fill="#2A428C"/>
<path d="M20.7127 50.6665H17.9549C17.788 50.6665 17.6291 50.6993 17.4827 50.757C17.96 50.9454 18.2981 51.4098 18.2981 51.9542V54.7121C18.2981 55.2565 17.9599 55.7209 17.4827 55.9093C17.6291 55.9671 17.788 55.9999 17.9549 55.9999H20.7127C21.4239 55.9999 22.0005 55.4234 22.0005 54.7123V51.9543C22.0005 51.2429 21.4239 50.6665 20.7127 50.6665Z" fill="#2A428C"/>
<path d="M31.3794 40H28.6215C28.4547 40 28.2958 40.0328 28.1494 40.0905C28.6267 40.2789 28.965 40.7433 28.965 41.2877V44.0456C28.965 44.59 28.6267 45.0544 28.1494 45.2428C28.2958 45.3006 28.4547 45.3334 28.6215 45.3334H31.3794C32.0906 45.3334 32.6672 44.7569 32.6672 44.0458V41.2878C32.667 40.5766 32.0906 40 31.3794 40Z" fill="#2A428C"/>
<path d="M43.3337 45.3333V41.2877C43.3337 40.5764 42.7572 40 42.0459 40H39.2881C39.1212 40 38.9623 40.0328 38.8159 40.0905C39.2933 40.2789 39.6315 40.7433 39.6315 41.2877V44.0456C39.6315 44.59 39.2933 45.0544 38.8159 45.2428C38.9623 45.3006 39.1212 45.3334 39.2881 45.3334H43.3337V45.3333Z" fill="#2A428C"/>
<path d="M31.3794 50.6665H28.6215C28.4547 50.6665 28.2958 50.6993 28.1494 50.757C28.6267 50.9454 28.965 51.4098 28.965 51.9542V54.7121C28.965 55.2565 28.6267 55.7209 28.1494 55.9093C28.2958 55.9671 28.4547 55.9999 28.6215 55.9999H31.3794C32.0906 55.9999 32.6672 55.4234 32.6672 54.7123V51.9543C32.667 51.2429 32.0906 50.6665 31.3794 50.6665Z" fill="#2A428C"/>
<path d="M66.2991 22.4565V46.4061V61.3334H70.0039V46.4061V24.0001L66.2991 22.4565Z" fill="#D3DCFB"/>
<path d="M70.0039 24.0001V10.6666C70.0039 7.72115 67.6161 5.3335 64.6708 5.3335H5.99859C3.05312 5.3335 0.665466 7.72115 0.665466 10.6666V24.0001H70.0039Z" fill="#FF4155"/>
<path d="M17.4702 11.8738H13.9988C13.3319 11.8738 12.7916 11.3334 12.7916 10.6667C12.7916 9.99994 13.332 9.45947 13.9988 9.45947H17.4702C18.137 9.45947 18.6773 9.99994 18.6773 10.6667C18.6773 11.3334 18.1369 11.8738 17.4702 11.8738Z" fill="#E80054"/>
<path d="M25.9986 11.8738H22.5272C21.8603 11.8738 21.32 11.3334 21.32 10.6667C21.32 9.99994 21.8605 9.45947 22.5272 9.45947H25.9986C26.6655 9.45947 27.2058 9.99994 27.2058 10.6667C27.2058 11.3334 26.6655 11.8738 25.9986 11.8738Z" fill="#E80054"/>
<path d="M48.1386 11.8738H44.667C44.0002 11.8738 43.4598 11.3334 43.4598 10.6667C43.4598 9.99994 44.0003 9.45947 44.667 9.45947H48.1386C48.8055 9.45947 49.3458 9.99994 49.3458 10.6667C49.3458 11.3334 48.8055 11.8738 48.1386 11.8738Z" fill="#E80054"/>
<path d="M56.6672 11.8738H53.1957C52.5288 11.8738 51.9885 11.3334 51.9885 10.6667C51.9885 9.99994 52.5289 9.45947 53.1957 9.45947H56.6672C57.3341 9.45947 57.8744 9.99994 57.8744 10.6667C57.8744 11.3334 57.3339 11.8738 56.6672 11.8738Z" fill="#E80054"/>
<path d="M23.332 10C23.332 11.8409 21.8397 13.3333 19.9987 13.3333C18.1578 13.3333 16.6655 11.8409 16.6655 10V3.33328C16.6653 1.49234 18.1577 0 19.9986 0C21.8395 0 23.3319 1.49234 23.3319 3.33328V10H23.332Z" fill="#EBF5FC"/>
<path d="M54.0005 10C54.0005 11.8409 52.5081 13.3333 50.6672 13.3333C48.8262 13.3333 47.3337 11.8409 47.3337 10V3.33328C47.3337 1.49234 48.8261 0 50.667 0C52.508 0 54.0003 1.49234 54.0003 3.33328V10H54.0005Z" fill="#EBF5FC"/>
<path d="M50.667 0C49.9827 0 49.347 0.206875 48.8177 0.560625C49.7122 1.15844 50.3017 2.17672 50.3017 3.33344V10C50.3017 11.1566 49.7122 12.175 48.8177 12.7728C49.3469 13.1264 49.9827 13.3334 50.667 13.3334C52.508 13.3334 54.0003 11.8411 54.0003 10.0002V3.33328C54.0005 1.49234 52.5081 0 50.667 0V0Z" fill="#D3DCFB"/>
<path d="M19.9986 0C19.3142 0 18.6786 0.206875 18.1492 0.560625C19.0438 1.15844 19.6333 2.17672 19.6333 3.33344V10C19.6333 11.1566 19.0438 12.175 18.1492 12.7728C18.6784 13.1264 19.3142 13.3334 19.9986 13.3334C21.8395 13.3334 23.3319 11.8411 23.3319 10.0002V3.33328C23.332 1.49234 21.8397 0 19.9986 0V0Z" fill="#D3DCFB"/>
<path d="M64.6708 5.3335H60.9672C63.9127 5.3335 66.3003 7.72115 66.3003 10.6666V24.0002H70.0038V10.6668C70.0039 7.72131 67.6161 5.3335 64.6708 5.3335Z" fill="#E80054"/>
<path d="M0.665314 17.4595H70.0039V19.874H0.665314V17.4595Z" fill="#E80054"/>
<path d="M55.3347 80C66.3804 80 75.3347 71.0457 75.3347 60C75.3347 48.9543 66.3804 40 55.3347 40C44.289 40 35.3347 48.9543 35.3347 60C35.3347 71.0457 44.289 80 55.3347 80Z" fill="#4FABF7"/>
<path d="M55.3347 74.6669C63.4349 74.6669 70.0014 68.1004 70.0014 60.0002C70.0014 51.9 63.4349 45.3335 55.3347 45.3335C47.2345 45.3335 40.668 51.9 40.668 60.0002C40.668 68.1004 47.2345 74.6669 55.3347 74.6669Z" fill="#EBF5FC"/>
<path d="M55.3347 58.5406C54.6678 58.5406 54.1275 58.0001 54.1275 57.3334V50.6667C54.1275 49.9999 54.668 49.4595 55.3347 49.4595C56.0016 49.4595 56.5419 49.9999 56.5419 50.6667V57.3334C56.5419 58.0001 56.0014 58.5406 55.3347 58.5406Z" fill="#3C58A0"/>
<path d="M62.0014 61.2073H58.0013C57.3344 61.2073 56.7941 60.6669 56.7941 60.0002C56.7941 59.3334 57.3345 58.793 58.0013 58.793H62.0014C62.6683 58.793 63.2086 59.3334 63.2086 60.0002C63.2086 60.6669 62.6681 61.2073 62.0014 61.2073Z" fill="#3C58A0"/>
<path d="M55.3347 40C54.7105 40 54.0933 40.0302 53.4836 40.0861C63.6612 41.0203 71.6323 49.5786 71.6323 60C71.6323 70.4214 63.6611 78.9797 53.4834 79.9139C54.0931 79.9698 54.7103 80 55.3345 80C66.3802 80 75.3345 71.0456 75.3345 60C75.3345 48.9544 66.3803 40 55.3347 40Z" fill="#1886EA"/>
<path d="M55.3347 45.3335C54.7081 45.3335 54.0908 45.373 53.4848 45.4493C60.7117 46.3588 66.3017 52.5266 66.3017 60.0002C66.3017 67.4738 60.7117 73.6416 53.4848 74.5512C54.0908 74.6274 54.7081 74.6669 55.3347 74.6669C63.4348 74.6669 70.0014 68.1004 70.0014 60.0002C70.0014 51.9001 63.4348 45.3335 55.3347 45.3335Z" fill="#D3DCFB"/>
<path d="M55.3347 62.6669C56.8075 62.6669 58.0014 61.473 58.0014 60.0002C58.0014 58.5274 56.8075 57.3335 55.3347 57.3335C53.8619 57.3335 52.668 58.5274 52.668 60.0002C52.668 61.473 53.8619 62.6669 55.3347 62.6669Z" fill="#FFDD40"/>
</svg>
