<svg width="22" height="22" viewBox="0 0 22 22" fill="none" xmlns="http://www.w3.org/2000/svg">
<path d="M2.75004 8.24967C2.99316 8.24967 3.22631 8.1531 3.39822 7.98119C3.57013 7.80928 3.66671 7.57612 3.66671 7.33301V4.58301C3.66671 4.33989 3.76328 4.10674 3.93519 3.93483C4.1071 3.76292 4.34026 3.66634 4.58337 3.66634H7.33337C7.57649 3.66634 7.80965 3.56976 7.98155 3.39786C8.15346 3.22595 8.25004 2.99279 8.25004 2.74967C8.25004 2.50656 8.15346 2.2734 7.98155 2.10149C7.80965 1.92958 7.57649 1.83301 7.33337 1.83301H4.58337C3.85403 1.83301 3.15456 2.12274 2.63883 2.63846C2.12311 3.15419 1.83337 3.85366 1.83337 4.58301V7.33301C1.83337 7.57612 1.92995 7.80928 2.10186 7.98119C2.27377 8.1531 2.50693 8.24967 2.75004 8.24967ZM7.33337 18.333H4.58337C4.34026 18.333 4.1071 18.2364 3.93519 18.0645C3.76328 17.8926 3.66671 17.6595 3.66671 17.4163V14.6663C3.66671 14.4232 3.57013 14.1901 3.39822 14.0182C3.22631 13.8463 2.99316 13.7497 2.75004 13.7497C2.50693 13.7497 2.27377 13.8463 2.10186 14.0182C1.92995 14.1901 1.83337 14.4232 1.83337 14.6663V17.4163C1.83337 18.1457 2.12311 18.8452 2.63883 19.3609C3.15456 19.8766 3.85403 20.1663 4.58337 20.1663H7.33337C7.57649 20.1663 7.80965 20.0698 7.98155 19.8979C8.15346 19.7259 8.25004 19.4928 8.25004 19.2497C8.25004 19.0066 8.15346 18.7734 7.98155 18.6015C7.80965 18.4296 7.57649 18.333 7.33337 18.333ZM15.5834 11.9163C15.8265 11.9163 16.0596 11.8198 16.2316 11.6479C16.4035 11.4759 16.5 11.2428 16.5 10.9997C16.5 10.7566 16.4035 10.5234 16.2316 10.3515C16.0596 10.1796 15.8265 10.083 15.5834 10.083H14.5384C14.3738 9.45247 14.0441 8.87719 13.5833 8.4164C13.1225 7.9556 12.5472 7.62594 11.9167 7.46134V6.41634C11.9167 6.17323 11.8201 5.94007 11.6482 5.76816C11.4763 5.59625 11.2432 5.49967 11 5.49967C10.7569 5.49967 10.5238 5.59625 10.3519 5.76816C10.18 5.94007 10.0834 6.17323 10.0834 6.41634V7.46134C9.45284 7.62594 8.87756 7.9556 8.41676 8.4164C7.95597 8.87719 7.6263 9.45247 7.46171 10.083H6.41671C6.17359 10.083 5.94043 10.1796 5.76853 10.3515C5.59662 10.5234 5.50004 10.7566 5.50004 10.9997C5.50004 11.2428 5.59662 11.4759 5.76853 11.6479C5.94043 11.8198 6.17359 11.9163 6.41671 11.9163H7.46171C7.6263 12.5469 7.95597 13.1222 8.41676 13.583C8.87756 14.0437 9.45284 14.3734 10.0834 14.538V15.583C10.0834 15.8261 10.18 16.0593 10.3519 16.2312C10.5238 16.4031 10.7569 16.4997 11 16.4997C11.2432 16.4997 11.4763 16.4031 11.6482 16.2312C11.8201 16.0593 11.9167 15.8261 11.9167 15.583V14.538C12.5472 14.3734 13.1225 14.0437 13.5833 13.583C14.0441 13.1222 14.3738 12.5469 14.5384 11.9163H15.5834ZM11 12.833C10.6374 12.833 10.283 12.7255 9.9815 12.524C9.68001 12.3226 9.44502 12.0363 9.30626 11.7013C9.1675 11.3663 9.13119 10.9976 9.20193 10.642C9.27267 10.2864 9.44728 9.95971 9.70368 9.70331C9.96008 9.44692 10.2867 9.27231 10.6424 9.20157C10.998 9.13083 11.3666 9.16713 11.7016 9.3059C12.0366 9.44466 12.323 9.67964 12.5244 9.98113C12.7259 10.2826 12.8334 10.6371 12.8334 10.9997C12.8334 11.4859 12.6402 11.9522 12.2964 12.296C11.9526 12.6399 11.4863 12.833 11 12.833ZM19.25 13.7497C19.0069 13.7497 18.7738 13.8463 18.6019 14.0182C18.43 14.1901 18.3334 14.4232 18.3334 14.6663V17.4163C18.3334 17.6595 18.2368 17.8926 18.0649 18.0645C17.893 18.2364 17.6598 18.333 17.4167 18.333H14.6667C14.4236 18.333 14.1904 18.4296 14.0185 18.6015C13.8466 18.7734 13.75 19.0066 13.75 19.2497C13.75 19.4928 13.8466 19.7259 14.0185 19.8979C14.1904 20.0698 14.4236 20.1663 14.6667 20.1663H17.4167C18.1461 20.1663 18.8455 19.8766 19.3613 19.3609C19.877 18.8452 20.1667 18.1457 20.1667 17.4163V14.6663C20.1667 14.4232 20.0701 14.1901 19.8982 14.0182C19.7263 13.8463 19.4932 13.7497 19.25 13.7497ZM17.4167 1.83301H14.6667C14.4236 1.83301 14.1904 1.92958 14.0185 2.10149C13.8466 2.2734 13.75 2.50656 13.75 2.74967C13.75 2.99279 13.8466 3.22595 14.0185 3.39786C14.1904 3.56976 14.4236 3.66634 14.6667 3.66634H17.4167C17.6598 3.66634 17.893 3.76292 18.0649 3.93483C18.2368 4.10674 18.3334 4.33989 18.3334 4.58301V7.33301C18.3334 7.57612 18.43 7.80928 18.6019 7.98119C18.7738 8.1531 19.0069 8.24967 19.25 8.24967C19.4932 8.24967 19.7263 8.1531 19.8982 7.98119C20.0701 7.80928 20.1667 7.57612 20.1667 7.33301V4.58301C20.1667 3.85366 19.877 3.15419 19.3613 2.63846C18.8455 2.12274 18.1461 1.83301 17.4167 1.83301Z" fill="#30303C"/>
</svg>
