<svg width="144" height="91" viewBox="0 0 144 91" fill="none" xmlns="http://www.w3.org/2000/svg">
<path d="M58.4784 5.49527L53.2946 10.6214C53.1044 10.8096 52.8136 10.853 52.5744 10.7289L46.0601 7.34837C45.5253 7.07091 44.9527 7.63705 45.2245 8.17474L48.535 14.7234C48.6566 14.9638 48.61 15.254 48.4197 15.4422L43.2359 20.5683C42.8103 20.9891 43.176 21.7125 43.7696 21.6239L50.9995 20.545C51.2649 20.5054 51.5269 20.6414 51.6485 20.8818L54.959 27.4305C55.2308 27.968 56.0293 27.8489 56.1243 27.2565L57.2821 20.0412C57.3246 19.7763 57.533 19.5701 57.7985 19.5305L65.0284 18.4516C65.622 18.3631 65.7499 17.5661 65.2151 17.2885L58.7008 13.908C58.4616 13.7839 58.3285 13.5204 58.371 13.2555L59.5288 6.04017C59.6235 5.44785 58.9039 5.07447 58.4784 5.49527Z" fill="#2AC25E"/>
<path d="M66.2839 57.0097C82.0894 57.0673 94.9014 44.2592 94.8438 28.4585C94.7983 15.957 86.7509 5.29756 75.5687 1.34262C74.7876 1.06637 75.0604 -0.0999719 75.8808 0.00689677C92.5916 2.18448 106.17 16.7272 106.233 34.183C106.302 53.1472 90.98 68.4648 72.0099 68.3958C54.549 68.3322 40.0017 54.7584 37.8234 38.0525C37.7165 37.2323 38.8832 36.9597 39.1596 37.7405C43.1157 48.9193 53.7785 56.9641 66.2839 57.0097Z" fill="#2AC25E"/>
<path d="M14.3569 91L13.2211 89.8645C12.0247 90.6215 10.6087 91 8.97306 91C6.7014 91 4.81592 90.2581 3.31662 88.7745C1.83247 87.2756 1.0904 85.3983 1.0904 83.1425C1.0904 80.9018 1.84004 79.032 3.33934 77.5332C4.83864 76.0344 6.71654 75.285 8.97306 75.285C11.2296 75.285 13.1075 76.0419 14.6068 77.5559C16.1061 79.0547 16.8557 80.9169 16.8557 83.1425C16.8557 85.262 16.1591 87.0712 14.7658 88.5701L17.2192 91H14.3569ZM10.8813 84.7094L13.1983 87.0031C14.0919 85.9736 14.5386 84.6867 14.5386 83.1425C14.5386 81.462 14.0161 80.0918 12.9712 79.032C11.9262 77.9571 10.5935 77.4197 8.97306 77.4197C7.35261 77.4197 6.0199 77.9571 4.97494 79.032C3.92997 80.0918 3.40749 81.462 3.40749 83.1425C3.40749 84.823 3.92997 86.2007 4.97494 87.2756C6.0199 88.3354 7.35261 88.8653 8.97306 88.8653C9.95744 88.8653 10.8282 88.6685 11.5855 88.2748L7.99624 84.7094H10.8813Z" fill="#2AC25E"/>
<path d="M26.3521 82.2568V81.144H28.5784V90.7048H26.3521V89.7056C25.6101 90.5685 24.656 91 23.4899 91C22.0814 91 20.9532 90.5004 20.1051 89.5012C19.2721 88.5019 18.8557 87.3059 18.8557 85.913C18.8557 84.3991 19.3024 83.1879 20.1959 82.2795C21.1046 81.356 22.2102 80.8942 23.5126 80.8942C24.709 80.8942 25.6555 81.3484 26.3521 82.2568ZM23.7852 82.8927C22.9977 82.8927 22.354 83.1879 21.8543 83.7783C21.3696 84.3688 21.1273 85.0955 21.1273 85.9585C21.1273 86.8063 21.3696 87.5254 21.8543 88.1159C22.354 88.7063 22.9977 89.0015 23.7852 89.0015C24.5424 89.0015 25.1785 88.7366 25.6934 88.2067C26.2234 87.6768 26.4884 86.935 26.4884 85.9812C26.4884 84.9971 26.2234 84.2401 25.6934 83.7102C25.1785 83.1652 24.5424 82.8927 23.7852 82.8927Z" fill="#2AC25E"/>
<path d="M40.2716 81.144L34.1154 88.6609H39.7945V90.7048H29.7311L35.9327 83.1879H31.0486V81.144H40.2716Z" fill="#2AC25E"/>
<path d="M42.6046 82.3249C43.589 81.3711 44.8081 80.8942 46.262 80.8942C47.7159 80.8942 48.9274 81.3711 49.8967 82.3249C50.881 83.2636 51.3732 84.4672 51.3732 85.9358C51.3732 87.3892 50.881 88.6003 49.8967 89.5693C48.9274 90.5231 47.7159 91 46.262 91C44.8081 91 43.589 90.5231 42.6046 89.5693C41.6354 88.6003 41.1508 87.3892 41.1508 85.9358C41.1508 84.4672 41.6354 83.2636 42.6046 82.3249ZM44.1948 88.184C44.7097 88.729 45.3988 89.0015 46.262 89.0015C47.1252 89.0015 47.8143 88.729 48.3292 88.184C48.8441 87.6238 49.1016 86.882 49.1016 85.9585C49.1016 84.9441 48.8214 84.1795 48.2611 83.6648C47.7159 83.15 47.0495 82.8927 46.262 82.8927C45.4745 82.8927 44.8006 83.15 44.2402 83.6648C43.695 84.1795 43.4224 84.9441 43.4224 85.9585C43.4224 86.882 43.6799 87.6238 44.1948 88.184Z" fill="#2AC25E"/>
<path d="M58.9758 90.7048V81.144H61.2021V82.0297C61.8836 81.2727 62.7468 80.8942 63.7918 80.8942C65.0488 80.8942 65.9877 81.3257 66.6086 82.1887C67.0024 82.7488 67.1993 83.6345 67.1993 84.8457V90.7048H64.973V85.3907C64.973 84.8154 64.9276 84.3461 64.8367 83.9827C64.7459 83.6194 64.602 83.3696 64.4051 83.2333C64.2082 83.0819 64.0265 82.9911 63.8599 82.9608C63.7085 82.9154 63.4965 82.8927 63.2239 82.8927C62.9058 82.8927 62.6484 82.923 62.4515 82.9835C62.2698 83.0289 62.0653 83.15 61.8381 83.3469C61.6261 83.5285 61.4671 83.854 61.3611 84.3234C61.2551 84.7776 61.2021 85.3756 61.2021 86.1174V90.7048H58.9758Z" fill="#2AC25E"/>
<path d="M77.0208 82.2568V81.144H79.247V90.7048H77.0208V89.7056C76.2787 90.5685 75.3246 91 74.1585 91C72.7501 91 71.6218 90.5004 70.7738 89.5012C69.9408 88.5019 69.5243 87.3059 69.5243 85.913C69.5243 84.3991 69.9711 83.1879 70.8646 82.2795C71.7733 81.356 72.8788 80.8942 74.1812 80.8942C75.3777 80.8942 76.3242 81.3484 77.0208 82.2568ZM74.4538 82.8927C73.6663 82.8927 73.0227 83.1879 72.5229 83.7783C72.0383 84.3688 71.796 85.0955 71.796 85.9585C71.796 86.8063 72.0383 87.5254 72.5229 88.1159C73.0227 88.7063 73.6663 89.0015 74.4538 89.0015C75.2111 89.0015 75.8471 88.7366 76.362 88.2067C76.8921 87.6768 77.1571 86.935 77.1571 85.9812C77.1571 84.9971 76.8921 84.2401 76.362 83.7102C75.8471 83.1652 75.2111 82.8927 74.4538 82.8927Z" fill="#2AC25E"/>
<path d="M82.0701 90.7048V81.144H84.2963V82.0297C84.9173 81.2727 85.7048 80.8942 86.6589 80.8942C87.7644 80.8942 88.5898 81.3636 89.135 82.3022C89.7862 81.3636 90.7327 80.8942 91.9745 80.8942C93.2164 80.8942 94.1251 81.3938 94.7005 82.3931C95.0337 82.9835 95.2003 83.7859 95.2003 84.8003V90.7048H92.9741V85.4361C92.9741 84.6035 92.9059 84.0357 92.7696 83.7329C92.5576 83.1728 92.1336 82.8927 91.4975 82.8927C90.9523 82.8927 90.5131 83.1273 90.1799 83.5967C89.8922 84.0054 89.7483 84.7321 89.7483 85.7768V90.7048H87.5221V85.4361C87.5221 84.6035 87.4539 84.0357 87.3176 83.7329C87.1056 83.1728 86.6816 82.8927 86.0455 82.8927C85.5003 82.8927 85.0611 83.1273 84.728 83.5967C84.4402 84.0054 84.2963 84.7321 84.2963 85.7768V90.7048H82.0701Z" fill="#2AC25E"/>
<path d="M98.9746 82.3249C99.959 81.3711 101.178 80.8942 102.632 80.8942C104.086 80.8942 105.297 81.3711 106.267 82.3249C107.251 83.2636 107.743 84.4672 107.743 85.9358C107.743 87.3892 107.251 88.6003 106.267 89.5693C105.297 90.5231 104.086 91 102.632 91C101.178 91 99.959 90.5231 98.9746 89.5693C98.0054 88.6003 97.5208 87.3892 97.5208 85.9358C97.5208 84.4672 98.0054 83.2636 98.9746 82.3249ZM100.565 88.184C101.08 88.729 101.769 89.0015 102.632 89.0015C103.495 89.0015 104.184 88.729 104.699 88.184C105.214 87.6238 105.472 86.882 105.472 85.9585C105.472 84.9441 105.191 84.1795 104.631 83.6648C104.086 83.15 103.42 82.8927 102.632 82.8927C101.844 82.8927 101.171 83.15 100.61 83.6648C100.065 84.1795 99.7924 84.9441 99.7924 85.9585C99.7924 86.882 100.05 87.6238 100.565 88.184Z" fill="#2AC25E"/>
<path d="M119.048 81.144L112.891 88.6609H118.571V90.7048H108.507L114.709 83.1879H109.825V81.144H119.048Z" fill="#2AC25E"/>
<path d="M120.648 74.1495H122.875V90.7048H120.648V74.1495Z" fill="#2AC25E"/>
<path d="M132.681 82.2568V81.144H134.907V90.7048H132.681V89.7056C131.939 90.5685 130.985 91 129.819 91C128.41 91 127.282 90.5004 126.434 89.5012C125.601 88.5019 125.184 87.3059 125.184 85.913C125.184 84.3991 125.631 83.1879 126.525 82.2795C127.433 81.356 128.539 80.8942 129.841 80.8942C131.038 80.8942 131.984 81.3484 132.681 82.2568ZM130.114 82.8927C129.326 82.8927 128.683 83.1879 128.183 83.7783C127.698 84.3688 127.456 85.0955 127.456 85.9585C127.456 86.8063 127.698 87.5254 128.183 88.1159C128.683 88.7063 129.326 89.0015 130.114 89.0015C130.871 89.0015 131.507 88.7366 132.022 88.2067C132.552 87.6768 132.817 86.935 132.817 85.9812C132.817 84.9971 132.552 84.2401 132.022 83.7102C131.507 83.1652 130.871 82.8927 130.114 82.8927Z" fill="#2AC25E"/>
<path d="M137.73 90.7048V81.144H139.956V82.007C140.244 81.6739 140.555 81.409 140.888 81.2122C141.251 81.0002 141.706 80.8942 142.251 80.8942C142.902 80.8942 143.485 81.0456 144 81.3484L143.091 83.3696C142.728 83.1425 142.349 83.0289 141.956 83.0289C141.365 83.0289 140.903 83.203 140.57 83.5512C140.161 83.9903 139.956 84.7246 139.956 85.7541V90.7048H137.73Z" fill="#2AC25E"/>
<path d="M106.234 65.7242H143.916V68.3959H106.234V65.7242Z" fill="#2AC25E"/>
<path d="M0 65.7242H37.8165V68.3959H0V65.7242Z" fill="#2AC25E"/>
</svg>
