<svg width="25" height="24" viewBox="0 0 25 24" fill="none" xmlns="http://www.w3.org/2000/svg">
<path d="M22.14 12.9997C21.9957 12.8803 21.8207 12.804 21.6351 12.7792C21.4494 12.7545 21.2606 12.7823 21.09 12.8597C20.0326 13.3435 18.8829 13.5926 17.72 13.5897C15.5689 13.5871 13.506 12.7341 11.9812 11.2168C10.4563 9.69943 9.59321 7.64077 9.58001 5.48966C9.58457 4.8155 9.66848 4.14421 9.83001 3.48966C9.86429 3.3152 9.85143 3.13476 9.79277 2.96692C9.7341 2.79908 9.63175 2.64991 9.49626 2.53479C9.36076 2.41967 9.19702 2.34276 9.02191 2.31198C8.8468 2.28119 8.66665 2.29765 8.50001 2.35966C6.93234 3.06457 5.56958 4.15642 4.53977 5.53265C3.50996 6.90887 2.84689 8.52429 2.61286 10.2271C2.37883 11.93 2.58152 13.6644 3.20188 15.2674C3.82225 16.8704 4.83993 18.2894 6.15931 19.3911C7.4787 20.4928 9.05649 21.241 10.7445 21.5655C12.4324 21.8899 14.1752 21.7799 15.809 21.2459C17.4428 20.7118 18.914 19.7712 20.0844 18.5124C21.2548 17.2536 22.0861 15.7179 22.5 14.0497C22.5504 13.8587 22.5431 13.657 22.4791 13.4701C22.415 13.2833 22.297 13.1196 22.14 12.9997ZM12.64 19.6897C10.9618 19.6778 9.32821 19.1475 7.96301 18.1714C6.5978 17.1953 5.56768 15.821 5.0137 14.2368C4.45971 12.6526 4.40895 10.9358 4.86835 9.32167C5.32776 7.70749 6.27487 6.27476 7.58001 5.21966V5.48966C7.58266 8.17815 8.65183 10.7558 10.5529 12.6568C12.4539 14.5578 15.0315 15.627 17.72 15.6297C18.4259 15.6323 19.13 15.5585 19.82 15.4097C19.1299 16.7152 18.0965 17.8075 16.8312 18.5688C15.5659 19.3301 14.1167 19.7315 12.64 19.7297V19.6897Z" fill="#A2A2A6"/>
</svg>
