<svg width="140" height="140" viewBox="0 0 140 140" fill="none" xmlns="http://www.w3.org/2000/svg">
<path d="M50.3491 95.1756C50.3491 70.1996 70.776 49.9945 95.8349 50.3548C120.108 50.704 139.846 70.6105 139.999 94.8858C140.085 108.481 134.117 120.682 124.635 128.957C123.634 129.831 123.778 131.425 124.922 132.101L133.368 137.099C134.734 137.907 134.16 140 132.574 139.999L94.3261 139.99C69.9611 139.538 50.3491 119.648 50.3491 95.1756Z" fill="#7ACAA6"/>
<path d="M133.368 137.099L124.921 132.102C123.778 131.425 123.634 129.831 124.634 128.958C134.117 120.682 140.085 108.481 139.999 94.8862C139.846 70.6109 120.108 50.7044 95.8347 50.3552C94.1826 50.3314 92.5512 50.3995 90.944 50.5499C113.558 52.6827 131.403 71.8094 131.548 94.8862C131.634 108.481 125.666 120.682 116.184 128.958C115.183 129.831 115.327 131.425 116.47 132.102L124.917 137.099C126.275 137.903 125.714 139.976 124.147 139.998L132.573 140C134.16 140 134.733 137.907 133.368 137.099Z" fill="#57BE92"/>
<path d="M96.8893 50.3833C96.5388 50.3699 96.1871 50.3598 95.8347 50.3549C70.7757 49.9942 50.3489 70.1996 50.3489 95.1756C50.3489 95.7482 50.3631 96.3172 50.3844 96.8843C74.8601 94.3006 94.3064 74.8589 96.8893 50.3833Z" fill="#57BE92"/>
<path d="M89.6506 44.825C89.6506 19.849 69.2237 -0.356132 44.1648 0.00425902C19.8918 0.353712 0.15422 20.2602 0.000548012 44.5355C-0.0853114 58.1302 5.88246 70.3313 15.365 78.6072C16.3658 79.4805 16.2217 81.0744 15.0784 81.7509L6.63195 86.7482C5.26641 87.5562 5.83981 89.6497 7.42629 89.6491L45.6739 89.6398C70.0386 89.187 89.6506 69.2977 89.6506 44.825Z" fill="#8795DE"/>
<path d="M44.1654 0.0047473C42.9669 0.0219739 41.7799 0.0886926 40.6055 0.199435C63.3776 2.33143 81.2003 21.4958 81.2003 44.8255C81.2003 69.2982 61.588 89.1875 37.2236 89.6403L7.40198 89.6477C7.41045 89.6477 7.41811 89.6499 7.42686 89.6499L45.6745 89.6406C70.0388 89.1877 89.6511 69.2985 89.6511 44.8258C89.6509 19.8495 69.2243 -0.355643 44.1654 0.0047473Z" fill="#6C7FD8"/>
<path d="M44.8254 79.8905C47.425 79.8905 49.5324 77.7831 49.5324 75.1835C49.5324 72.5839 47.425 70.4766 44.8254 70.4766C42.2258 70.4766 40.1185 72.5839 40.1185 75.1835C40.1185 77.7831 42.2258 79.8905 44.8254 79.8905Z" fill="white"/>
<path d="M44.8251 62.037C42.4916 62.037 40.5997 60.1451 40.5997 57.8116V42.7643C40.5997 40.4308 42.4916 38.5389 44.8251 38.5389C47.6383 38.5389 50.2559 37.4134 52.1962 35.3697C54.1351 33.3277 55.122 30.6494 54.9757 27.8278C54.7011 22.5425 50.3357 18.3187 45.0373 18.2121C39.8781 18.1076 35.4686 21.8652 34.7591 26.9514C34.6937 27.419 34.6606 27.8975 34.6606 28.3744C34.6606 30.7079 32.7687 32.5998 30.4352 32.5998C28.1017 32.5998 26.2098 30.7079 26.2098 28.3744C26.2098 27.5078 26.2702 26.6358 26.3894 25.783C27.6727 16.5862 35.5635 9.75928 44.8268 9.75928C44.9536 9.75928 45.0802 9.76064 45.2071 9.76311C54.9141 9.95861 62.9117 17.7013 63.4148 27.39C63.6827 32.5489 61.8748 37.4495 58.3245 41.1887C55.8099 43.8372 52.5631 45.6739 49.0506 46.4989V57.8118C49.0506 60.1451 47.1589 62.037 44.8251 62.037Z" fill="white"/>
<path d="M95.1746 99.8822C97.7742 99.8822 99.8816 97.7748 99.8816 95.1752C99.8816 92.5756 97.7742 90.4683 95.1746 90.4683C92.575 90.4683 90.4677 92.5756 90.4677 95.1752C90.4677 97.7748 92.575 99.8822 95.1746 99.8822Z" fill="white"/>
<path d="M116.301 99.8822C118.901 99.8822 121.008 97.7748 121.008 95.1752C121.008 92.5756 118.901 90.4683 116.301 90.4683C113.702 90.4683 111.594 92.5756 111.594 95.1752C111.594 97.7748 113.702 99.8822 116.301 99.8822Z" fill="white"/>
<path d="M74.0477 99.8822C76.6473 99.8822 78.7547 97.7748 78.7547 95.1752C78.7547 92.5756 76.6473 90.4683 74.0477 90.4683C71.4481 90.4683 69.3408 92.5756 69.3408 95.1752C69.3408 97.7748 71.4481 99.8822 74.0477 99.8822Z" fill="white"/>
</svg>
