<svg width="140" height="140" viewBox="0 0 140 140" fill="none" xmlns="http://www.w3.org/2000/svg">
<g clip-path="url(#clip0_71_7502)">
<path d="M58.7807 87.0216L45.0514 100.754C44.2502 101.555 43.2002 101.954 42.1502 101.954C41.1002 101.954 40.0502 101.555 39.249 100.754C37.6494 99.1513 37.6494 96.5536 39.249 94.9513L52.9783 81.2192C54.5807 79.6196 57.1783 79.6196 58.7807 81.2192V81.222C60.3803 82.8243 60.383 85.4192 58.7807 87.0216Z" fill="#DFE7F4"/>
<path d="M58.7807 87.0213L45.0514 100.753C44.2502 101.554 43.2002 101.954 42.1502 101.954C41.1002 101.954 40.0502 101.554 39.249 100.753L58.7807 81.2217C60.3803 82.824 60.383 85.4189 58.7807 87.0213Z" fill="#C7CFE1"/>
<path d="M135.898 50.977C135.898 76.8223 114.871 97.8523 89.0229 97.8523C79.5045 97.8523 70.3361 95.0113 62.5131 89.6383C60.1232 87.9977 57.9084 86.1574 55.8768 84.1258C53.8478 82.0941 52.0021 79.8766 50.3615 77.484C44.9885 69.6637 42.1475 60.4953 42.1475 50.977C42.1475 25.1289 63.1775 4.10156 89.0229 4.10156C101.948 4.10156 113.668 9.35977 122.153 17.85C130.643 26.3375 135.898 38.0543 135.898 50.977Z" fill="#7ED8F6"/>
<path d="M135.898 50.977C135.898 76.8224 114.871 97.8524 89.0228 97.8524C79.5044 97.8524 70.3361 95.0114 62.513 89.6384C60.1232 87.9977 57.9083 86.1575 55.8767 84.1259L122.152 17.8501C130.643 26.3376 135.898 38.0544 135.898 50.977Z" fill="#6AA9FF"/>
<path d="M54.455 50.9799C54.455 53.245 56.2914 55.0815 58.5565 55.0815C60.8217 55.0815 62.6581 53.245 62.6581 50.9799C62.6581 36.4407 74.4864 24.6123 89.0257 24.6123C91.2908 24.6123 93.1272 22.7759 93.1272 20.5107C93.1272 18.2456 91.2908 16.4092 89.0257 16.4092C69.9632 16.4092 54.455 31.9175 54.455 50.9799Z" fill="#F0F7FF"/>
<path d="M125.054 14.9488C115.825 5.71758 103.08 0 89.0256 0C60.9135 0 38.0459 22.8676 38.0459 50.9742C38.0459 61.3293 41.1357 71.2988 46.9791 79.8027C48.7646 82.4031 50.7689 84.8176 52.9783 87.0242C55.1877 89.2363 57.5967 91.2352 60.1943 93.0207C68.701 98.8641 78.6705 101.954 89.0256 101.954C117.132 101.954 140 79.0863 140 50.9742C140 36.9223 134.282 24.1801 125.054 14.9488ZM89.0256 93.7508C80.3357 93.7508 71.974 91.1613 64.8373 86.2586C62.6553 84.7602 60.6346 83.0785 58.7807 81.2219C56.924 79.3707 55.2396 77.3445 53.7412 75.1598C48.8385 68.0258 46.249 59.6641 46.249 50.9742C46.249 27.3902 65.4389 8.20312 89.0256 8.20312C100.819 8.20312 111.513 13.002 119.254 20.7484C127.001 28.4922 131.797 39.1863 131.797 50.9742C131.797 74.5609 112.61 93.7508 89.0256 93.7508Z" fill="#334973"/>
<path d="M140 50.9741C140 79.0862 117.132 101.954 89.0255 101.954C78.6705 101.954 68.7009 98.864 60.1943 93.0206C57.5966 91.2351 55.1876 89.2362 52.9783 87.0241L58.7806 81.2218C60.6345 83.0784 62.6552 84.76 64.8373 86.2585C71.974 91.1612 80.3357 93.7507 89.0255 93.7507C112.61 93.7507 131.797 74.5608 131.797 50.9741C131.797 39.1862 127.001 28.4921 119.254 20.7483L125.054 14.9487C134.282 24.18 140 36.9222 140 50.9741Z" fill="#1F3259"/>
<path d="M50.8482 106.55L18.6017 138.799C16.9986 140.403 14.4004 140.398 12.8021 138.799L7.00252 133L1.20018 127.197C-0.396151 125.601 -0.402987 123.001 1.20018 121.398L33.4494 89.1486C34.2178 88.3803 35.2596 87.9482 36.3478 87.9482C37.4361 87.9482 38.4807 88.3803 39.249 89.1486L45.0514 94.951L50.8482 100.751C52.4506 102.353 52.4506 104.951 50.8482 106.55Z" fill="#334973"/>
<path d="M50.8483 106.55L18.6018 138.8C16.9986 140.403 14.4004 140.398 12.8022 138.8L7.00256 133L45.0514 94.9512L50.8483 100.751C52.4506 102.353 52.4506 104.951 50.8483 106.55Z" fill="#1F3259"/>
</g>
<defs>
<clipPath id="clip0_71_7502">
<rect width="140" height="140" fill="white"/>
</clipPath>
</defs>
</svg>
