<svg width="25" height="24" viewBox="0 0 25 24" fill="none" xmlns="http://www.w3.org/2000/svg">
<path d="M20.4 12.6604C20.2397 12.4779 20.1513 12.2433 20.1513 12.0004C20.1513 11.7575 20.2397 11.5229 20.4 11.3404L21.68 9.90038C21.8211 9.74305 21.9087 9.54509 21.9302 9.33489C21.9518 9.12469 21.9062 8.91307 21.8 8.73038L19.8 5.27038C19.6949 5.0879 19.5349 4.94326 19.3428 4.85707C19.1506 4.77088 18.9362 4.74754 18.73 4.79038L16.85 5.17038C16.6108 5.21981 16.3618 5.17997 16.1499 5.05838C15.938 4.93679 15.778 4.74187 15.7 4.51038L15.09 2.68038C15.0229 2.48176 14.8951 2.30925 14.7246 2.18723C14.5542 2.0652 14.3497 1.99984 14.14 2.00038H10.14C9.92195 1.989 9.70615 2.04931 9.52558 2.1721C9.34501 2.29489 9.2096 2.4734 9.14002 2.68038L8.58002 4.51038C8.50202 4.74187 8.34199 4.93679 8.13013 5.05838C7.91827 5.17997 7.66924 5.21981 7.43002 5.17038L5.50002 4.79038C5.30457 4.76276 5.10532 4.79361 4.92737 4.87902C4.74941 4.96444 4.60072 5.10061 4.50002 5.27038L2.50002 8.73038C2.39118 8.91103 2.34224 9.12147 2.3602 9.33161C2.37816 9.54174 2.4621 9.74082 2.60002 9.90038L3.87002 11.3404C4.03034 11.5229 4.11875 11.7575 4.11875 12.0004C4.11875 12.2433 4.03034 12.4779 3.87002 12.6604L2.60002 14.1004C2.4621 14.2599 2.37816 14.459 2.3602 14.6692C2.34224 14.8793 2.39118 15.0897 2.50002 15.2704L4.50002 18.7304C4.60512 18.9129 4.76514 19.0575 4.95727 19.1437C5.1494 19.2299 5.36384 19.2532 5.57002 19.2104L7.45002 18.8304C7.68924 18.781 7.93827 18.8208 8.15013 18.9424C8.36199 19.064 8.52202 19.2589 8.60002 19.4904L9.21002 21.3204C9.2796 21.5274 9.41501 21.7059 9.59558 21.8287C9.77615 21.9515 9.99195 22.0118 10.21 22.0004H14.21C14.4197 22.0009 14.6242 21.9356 14.7946 21.8135C14.9651 21.6915 15.0929 21.519 15.16 21.3204L15.77 19.4904C15.848 19.2589 16.008 19.064 16.2199 18.9424C16.4318 18.8208 16.6808 18.781 16.92 18.8304L18.8 19.2104C19.0062 19.2532 19.2206 19.2299 19.4128 19.1437C19.6049 19.0575 19.7649 18.9129 19.87 18.7304L21.87 15.2704C21.9762 15.0877 22.0218 14.8761 22.0002 14.6659C21.9787 14.4557 21.8911 14.2577 21.75 14.1004L20.4 12.6604ZM18.91 14.0004L19.71 14.9004L18.43 17.1204L17.25 16.8804C16.5298 16.7332 15.7806 16.8555 15.1446 17.2242C14.5086 17.5929 14.0302 18.1822 13.8 18.8804L13.42 20.0004H10.86L10.5 18.8604C10.2699 18.1622 9.7914 17.5729 9.15542 17.2042C8.51945 16.8355 7.77024 16.7132 7.05002 16.8604L5.87002 17.1004L4.57002 14.8904L5.37002 13.9904C5.86197 13.4404 6.13395 12.7283 6.13395 11.9904C6.13395 11.2525 5.86197 10.5404 5.37002 9.99038L4.57002 9.09038L5.85002 6.89038L7.03002 7.13038C7.75024 7.27761 8.49945 7.15526 9.13542 6.78658C9.7714 6.4179 10.2499 5.82854 10.48 5.13038L10.86 4.00038H13.42L13.8 5.14038C14.0302 5.83854 14.5086 6.4279 15.1446 6.79658C15.7806 7.16526 16.5298 7.28761 17.25 7.14038L18.43 6.90038L19.71 9.12038L18.91 10.0204C18.4236 10.5691 18.155 11.2771 18.155 12.0104C18.155 12.7437 18.4236 13.4516 18.91 14.0004ZM12.14 8.00038C11.3489 8.00038 10.5755 8.23498 9.91774 8.67451C9.25994 9.11403 8.74725 9.73874 8.4445 10.4696C8.14175 11.2006 8.06254 12.0048 8.21688 12.7807C8.37122 13.5567 8.75218 14.2694 9.31159 14.8288C9.871 15.3882 10.5837 15.7692 11.3597 15.9235C12.1356 16.0779 12.9398 15.9987 13.6708 15.6959C14.4017 15.3932 15.0264 14.8805 15.4659 14.2227C15.9054 13.5649 16.14 12.7915 16.14 12.0004C16.14 10.9395 15.7186 9.9221 14.9684 9.17196C14.2183 8.42181 13.2009 8.00038 12.14 8.00038ZM12.14 14.0004C11.7445 14.0004 11.3578 13.8831 11.0289 13.6633C10.7 13.4436 10.4436 13.1312 10.2923 12.7657C10.1409 12.4003 10.1013 11.9982 10.1784 11.6102C10.2556 11.2222 10.4461 10.8659 10.7258 10.5862C11.0055 10.3065 11.3619 10.116 11.7498 10.0388C12.1378 9.96164 12.5399 10.0012 12.9054 10.1526C13.2708 10.304 13.5832 10.5603 13.803 10.8892C14.0227 11.2181 14.14 11.6048 14.14 12.0004C14.14 12.5308 13.9293 13.0395 13.5542 13.4146C13.1792 13.7897 12.6705 14.0004 12.14 14.0004Z" fill="#A2A2A6"/>
</svg>
